<svg width="418" height="241" viewBox="0 0 418 241" fill="none" xmlns="http://www.w3.org/2000/svg">
<g clip-path="url(#clip0_401_1144)">
<path d="M189.335 210.249C189.335 220.937 180.98 228.917 170.768 228.917C160.557 228.917 152.274 220.937 152.274 210.249C152.274 199.562 160.557 191.444 170.768 191.444C180.98 191.444 189.335 199.562 189.335 210.249ZM179.838 210.317C179.838 204.143 175.767 199.84 170.768 199.84C165.77 199.84 161.7 204.143 161.7 210.317C161.7 216.356 165.77 220.522 170.768 220.522C175.767 220.522 179.838 216.356 179.838 210.317Z" fill="white"/>
<path d="M209.346 228.916C199.061 228.916 192.991 222.327 192.991 212.955V192.346H202.418V213.231C202.418 215.246 203.133 220.031 209.346 220.031C213.486 220.031 216.484 217.19 216.484 213.231V192.346H225.911V212.955C225.911 222.048 219.343 228.916 209.346 228.916Z" fill="#FCAF17"/>
<path d="M246.48 228.916C237.125 228.916 230.197 224.13 229.055 216.424H238.624C239.909 219.48 243.692 220.59 246.48 220.59C250.265 220.59 253.118 219.48 253.118 217.397C253.118 215.383 251.832 214.552 245.408 213.578C238.839 212.608 230.057 210.876 230.057 202.894C230.057 197.274 235.125 191.444 245.765 191.444C254.189 191.444 260.476 195.885 261.689 202.617H251.905C251.334 200.95 249.265 199.63 245.765 199.63C241.411 199.63 239.625 201.158 239.625 202.475C239.625 204.351 242.337 204.974 246.908 205.668C256.048 207.125 262.619 209.072 262.619 216.842C262.619 223.92 255.903 228.916 246.48 228.916Z" fill="#FCAF17"/>
<path d="M291.483 216.703C289.911 219.548 286.837 220.866 283.698 220.866C279.272 220.866 275.7 218.16 274.484 213.789H302.263C303.621 199.629 294.625 191.443 283.768 191.443C273.417 191.443 264.914 199.909 264.914 210.25C264.914 220.59 273.417 228.916 283.768 228.916C291.246 228.916 296.952 225.618 299.955 220.431L291.483 216.703ZM283.698 199.493C288.196 199.493 291.766 202.128 292.909 206.294H274.63C275.984 202.128 279.413 199.493 283.698 199.493Z" fill="#FCAF17"/>
<path d="M139.642 228.842H130.448V216.411L114.334 192.346H124.638L135.01 207.236L145.452 192.346H155.756L139.642 216.411V228.842Z" fill="#FCAF17"/>
<path d="M189.333 240.871C189.333 236.287 185.666 232.574 181.143 232.574H160.469C155.944 232.574 152.272 236.287 152.272 240.871H189.333Z" fill="white"/>
</g>
<g clip-path="url(#clip1_401_1144)">
<path d="M39.5495 52.6048H30.7635L30.7629 53.1178V61.3705L39.5495 61.3703V52.6048H48.3356V87.6664H39.5495L39.549 96.4326L48.3356 96.4318V113.963H57.1217V87.6664H65.9077V78.9016L83.4797 78.9009V105.197H92.2658V96.4318L101.051 96.4326L101.052 87.6664H109.838V78.9009H101.052V87.6664H92.2658V26.3084H83.4797V35.0739H74.6937V43.8394H65.9077V52.6048L74.6929 52.605L74.6937 43.8394H83.3884L83.479 43.8395V52.4473L83.4797 52.6048V70.1358H65.9077L65.9077 78.9016L57.1217 78.9009V35.0739H48.3356V43.8394H39.5495V52.6048Z" fill="white"/>
<path fill-rule="evenodd" clip-rule="evenodd" d="M35.156 130.864C68.7744 150.229 111.762 138.737 131.171 105.197C150.582 71.6576 139.063 28.7706 105.444 9.40653C71.826 -9.95764 28.8382 1.53391 9.42863 35.0736C-9.98103 68.6132 1.53751 111.5 35.156 130.864ZM20.6427 81.5588C18.2046 94.267 18.8077 106.074 22.4115 115.319C8.92385 101.102 2.56773 81.5827 4.84927 62.3685C6.51027 65.3572 8.64953 68.4376 11.1917 71.548C13.8821 74.8395 17.0525 78.2003 20.6427 81.5588ZM14.5964 68.7785C10.4324 63.6836 7.60104 58.9071 6.21831 54.7446C7.66612 48.7559 9.98871 42.8711 13.2331 37.2649C17.8538 29.2804 23.8997 22.6288 30.8653 17.4451C32.5251 20.4287 34.6611 23.5036 37.1987 26.6084C38.7527 28.5098 40.467 30.4341 42.3297 32.3678C42.6541 31.6514 43.1076 30.992 43.6755 30.4255C44.177 29.9252 44.751 29.5138 45.3728 29.2017C43.6388 27.3954 42.0456 25.6035 40.6033 23.8387C38.0612 20.7283 36.0157 17.7364 34.4933 14.9305C49.4574 5.28725 67.9598 1.97233 85.5778 6.16799C73.2695 8.05776 59.8265 16.0241 48.1205 28.5035C48.1919 28.5011 48.2634 28.5 48.3351 28.5H54.2678C59.6671 23.2355 65.3474 18.9939 70.9991 15.9176C82.5578 9.62619 93.3666 8.48154 101.611 12.3491L96.4649 21.2426C96.6243 21.3739 96.7773 21.5131 96.9251 21.6601C98.0637 22.7963 98.7428 24.3057 98.8421 25.9003L105.381 14.6015C112.512 19.894 116.706 29.6303 117.015 42.4229C117.217 50.7225 115.751 60.0371 112.553 69.6348C108.167 68.313 103.575 66.6583 98.8551 64.6819V69.4237C108.088 73.1664 116.872 75.718 124.636 76.9718C128.599 77.6117 132.336 77.9197 135.756 77.8619C134.739 86.4719 131.988 95.0212 127.367 103.006C124.123 108.612 120.176 113.562 115.701 117.807C111.396 118.693 105.834 118.635 99.3305 117.585C96.0801 117.06 92.623 116.292 89.0087 115.288C90.1806 114.159 91.3381 112.985 92.4795 111.768C92.4418 111.77 92.4049 111.771 92.3672 111.771C92.3331 111.772 92.2991 111.772 92.265 111.772H86.3323C85.6104 112.476 84.8842 113.16 84.1537 113.827C77.665 111.729 70.7669 108.929 63.7107 105.463V110.334C69.3681 113.029 74.932 115.31 80.2806 117.154C76.762 119.996 73.176 122.408 69.6016 124.354C58.3421 130.482 47.7935 131.727 39.6337 128.212L44.7045 119.449C44.3367 119.208 43.9917 118.927 43.6755 118.612C42.8065 117.745 42.2053 116.66 41.9249 115.487L35.794 126.082C28.3142 120.892 23.9031 110.98 23.5853 97.8483C23.487 93.7869 23.7876 89.4834 24.4949 85.0222C27.137 87.3077 29.9648 89.581 32.9594 91.8195V87.6671C32.9594 87.2318 33.0017 86.8067 33.0825 86.3952C30.3696 84.2803 27.8191 82.1459 25.447 80.0122C26.3352 75.9935 27.5409 71.8782 29.0692 67.7237C27.9569 67.4285 26.9313 66.845 26.1034 66.0191C25.8252 65.7416 25.5746 65.4418 25.353 65.124C23.8929 68.9627 22.6926 72.7846 21.7509 76.5481C19.0721 73.9271 16.6772 71.3245 14.5964 68.7785ZM55.0232 134.103C74.1073 138.648 94.2291 134.379 109.768 122.801C106.343 122.861 102.599 122.553 98.6283 121.911C94.4255 121.233 89.9234 120.174 85.2133 118.752C75.4009 127.212 64.8502 132.594 55.0232 134.103ZM125.337 72.6451C129.308 73.2864 132.928 73.5576 136.124 73.4701C137.014 55.7198 130.64 38.0764 118.189 24.9523C122.918 37.083 122.48 53.6244 116.785 70.8245C119.761 71.5984 122.621 72.2066 125.337 72.6451Z" fill="white"/>
<path d="M154.315 0H164.791V15.5834H194.218V0H204.693V42.2807H194.218V25.7308H164.791V42.2807H154.315V0Z" fill="white"/>
<path d="M218.779 7.55011C219.425 5.37568 220.495 3.58379 221.988 2.17444C223.523 0.724802 225.621 0 228.286 0H240.94C243.645 0 245.805 0.724802 247.42 2.17444C249.034 3.58379 250.164 5.37568 250.81 7.55011L261.225 42.2807H249.599L246.753 32.1333H227.559L229.981 21.9859H243.908L240.637 10.1474H228.891L219.929 42.2807H208.304L218.779 7.55011Z" fill="white"/>
<path d="M264.225 7.55011C264.225 6.4629 264.427 5.45619 264.831 4.53007C265.235 3.60392 265.759 2.81869 266.405 2.17444C267.091 1.4899 267.879 0.966415 268.766 0.603994C269.695 0.201318 270.643 0 271.612 0H311.394V10.1474H274.701V32.1333H311.394V42.2807H272.036C270.946 42.2807 269.917 42.0793 268.948 41.6766C267.979 41.274 267.152 40.7505 266.465 40.1062C265.78 39.4217 265.235 38.6364 264.831 37.7506C264.427 36.8244 264.225 35.8781 264.225 34.9117V7.55011Z" fill="white"/>
<path d="M316.865 0H327.341V16.5499H336.787L349.623 0H361.733L345.93 20.5363L364.7 42.2807H351.318L337.332 26.6972H327.341V42.2807H316.865V0Z" fill="white"/>
<path d="M172.541 58.9079H152.196V48.7605H203.24V58.9079H183.016V91.0408H172.541V58.9079Z" fill="white"/>
<path fill-rule="evenodd" clip-rule="evenodd" d="M207.165 56.3106C207.165 55.2234 207.366 54.2168 207.77 53.2906C208.173 52.3645 208.698 51.5792 209.344 50.9349C210.03 50.2504 210.817 49.727 211.706 49.3646C212.634 48.9619 213.582 48.7605 214.551 48.7605H250.457C251.547 48.7605 252.576 48.9619 253.545 49.3646C254.514 49.7672 255.342 50.3108 256.028 50.9954C256.714 51.6396 257.259 52.4249 257.663 53.351C258.066 54.2369 258.268 55.163 258.268 56.1294V83.4908C258.268 84.5782 258.066 85.5847 257.663 86.5109C257.259 87.4372 256.714 88.2426 256.028 88.9274C255.382 89.5716 254.595 90.0951 253.666 90.4978C252.778 90.8601 251.85 91.0408 250.881 91.0408H214.975C213.885 91.0408 212.856 90.8398 211.887 90.4371C210.918 90.0343 210.091 89.5109 209.405 88.8666C208.718 88.1819 208.173 87.3967 207.77 86.5109C207.366 85.5847 207.165 84.639 207.165 83.6723V56.3106ZM247.793 80.8936V58.9079H217.639V80.8936H247.793Z" fill="white"/>
<path fill-rule="evenodd" clip-rule="evenodd" d="M263.707 56.3106C263.707 55.2234 263.909 54.2168 264.313 53.2906C264.716 52.3645 265.241 51.5792 265.887 50.9349C266.573 50.2504 267.36 49.727 268.248 49.3646C269.177 48.9619 270.125 48.7605 271.094 48.7605H300.098C301.188 48.7605 302.197 48.9619 303.125 49.3646C304.053 49.7672 304.84 50.3108 305.486 50.9954C306.172 51.6396 306.697 52.4249 307.061 53.351C307.465 54.2369 307.666 55.163 307.666 56.1294V64.948C308.756 64.948 309.725 65.1493 310.572 65.552C311.461 65.9547 312.207 66.4983 312.813 67.1829C313.418 67.8271 313.863 68.6123 314.145 69.5385C314.468 70.4243 314.629 71.3505 314.629 72.3168V83.4908C314.629 84.5782 314.427 85.5847 314.024 86.5109C313.621 87.4372 313.076 88.2426 312.389 88.9274C311.744 89.5716 310.956 90.0951 310.027 90.4978C309.14 90.8601 308.211 91.0408 307.242 91.0408H263.707V56.3106ZM304.154 80.8936V74.431H274.182V80.8936H304.154ZM297.191 64.948V58.9079H274.182V64.948H297.191Z" fill="white"/>
<path d="M319.454 56.3106C319.454 55.2234 319.655 54.2168 320.059 53.2906C320.462 52.3645 320.987 51.5792 321.633 50.9349C322.319 50.2504 323.106 49.727 323.995 49.3646C324.923 48.9619 325.872 48.7605 326.84 48.7605H364.987V58.9079H329.928V64.344H360.203V74.491H329.928V80.8936H364.987V91.0408H327.264C326.174 91.0408 325.145 90.8398 324.176 90.4371C323.208 90.0343 322.38 89.5109 321.694 88.8666C321.007 88.1819 320.462 87.3967 320.059 86.5109C319.655 85.5847 319.454 84.639 319.454 83.6723V56.3106Z" fill="white"/>
<path d="M154.315 105.54C154.315 104.453 154.518 103.446 154.921 102.52C155.325 101.594 155.85 100.809 156.495 100.165C157.182 99.4802 157.969 98.9567 158.857 98.5945C159.785 98.1917 160.734 97.99 161.703 97.99H196.882V108.137H164.791V117.862H192.038V128.009H164.791V140.271H154.315V105.54Z" fill="white"/>
<path d="M200.778 105.54C200.778 104.453 200.98 103.446 201.383 102.52C201.787 101.594 202.312 100.809 202.958 100.165C203.644 99.4802 204.432 98.9567 205.319 98.5945C206.248 98.1917 207.196 97.99 208.165 97.99H246.312V108.137H211.253V113.574H241.528V123.721H211.253V130.124H246.312V140.271H208.589C207.499 140.271 206.469 140.069 205.501 139.667C204.532 139.264 203.705 138.741 203.018 138.097C202.332 137.412 201.787 136.627 201.383 135.741C200.98 134.815 200.778 133.868 200.778 132.902V105.54Z" fill="white"/>
<path d="M251.763 130.124H292.271V123.721H259.332C258.242 123.721 257.233 123.52 256.304 123.117C255.376 122.715 254.569 122.191 253.882 121.547C253.237 120.862 252.711 120.077 252.308 119.191C251.944 118.265 251.763 117.318 251.763 116.352V105.54C251.763 104.453 251.965 103.446 252.368 102.52C252.772 101.594 253.297 100.809 253.943 100.165C254.629 99.4802 255.416 98.9567 256.304 98.5945C257.233 98.1917 258.181 97.99 259.15 97.99H298.023V108.137H262.238V113.574H295.177C296.267 113.574 297.276 113.775 298.205 114.178C299.133 114.58 299.92 115.124 300.566 115.809C301.252 116.453 301.777 117.238 302.14 118.164C302.544 119.05 302.746 119.976 302.746 120.942V132.721C302.746 133.808 302.544 134.815 302.14 135.741C301.736 136.667 301.191 137.472 300.506 138.157C299.859 138.801 299.072 139.324 298.144 139.727C297.256 140.089 296.328 140.271 295.359 140.271H251.763V130.124Z" fill="white"/>
<path d="M323.087 108.137H302.743V97.99H353.786V108.137H333.563V140.271H323.087V108.137Z" fill="white"/>
<path fill-rule="evenodd" clip-rule="evenodd" d="M371.087 57.1967C371.087 55.9524 371.318 54.8002 371.78 53.7401C372.242 52.6801 372.843 51.7814 373.582 51.044C374.367 50.2605 375.268 49.6614 376.285 49.2466C377.348 48.7857 378.433 48.5552 379.542 48.5552H408.79C410.037 48.5552 411.192 48.7857 412.255 49.2466C413.317 49.7075 414.219 50.3297 414.957 51.1132C415.743 51.8506 416.344 52.7493 416.76 53.8092C417.221 54.8232 417.453 55.8832 417.453 56.9893L417.385 65.7476C417.385 66.8537 417.153 67.9137 416.692 68.9276C416.366 69.758 415.926 70.4895 415.374 71.122C415.407 71.1573 415.439 71.1929 415.471 71.2289C416.076 71.8732 416.52 72.6581 416.803 73.5843C417.126 74.4708 417.287 78.094 417.287 79.0607V83.4908C417.287 84.5782 417.085 85.5847 416.682 86.5109C416.278 87.4372 415.733 88.2426 415.047 88.9266C414.401 89.5709 413.614 90.0943 412.685 90.4971C411.797 90.8601 410.869 91.0408 409.9 91.0408H400.736V82.2739L406.812 82.2428V76.8792H379.474C378.365 76.8792 377.279 76.6486 376.217 76.188C375.2 75.773 374.299 75.1736 373.514 74.3905C372.775 73.653 372.174 72.7543 371.712 71.6942C371.25 70.6342 371.019 69.482 371.019 68.2377L371.087 57.1967ZM405.463 59.1265V66.0397H383.077V59.1265H405.463Z" fill="white"/>
<path d="M381.825 82.2739V91.0408H371.019V78.2277C371.019 78.2277 373.045 82.2739 378.448 82.2739H381.825Z" fill="white"/>
</g>
<defs>
<clipPath id="clip0_401_1144">
<rect width="188.988" height="49.5568" fill="white" transform="translate(114.334 191.443)"/>
</clipPath>
<clipPath id="clip1_401_1144">
<rect width="417.453" height="140.271" fill="white"/>
</clipPath>
</defs>
</svg>
